<!DOCTYPE svg PUBLIC "-//W3C//DTD SVG 20010904//EN" "http://www.w3.org/TR/2001/REC-SVG-20010904/DTD/svg10.dtd">
<svg version="1.0" xmlns="http://www.w3.org/2000/svg" width="420px" height="420px" viewBox="0 0 4200 4200" preserveAspectRatio="xMidYMid meet">
<g id="layer101" fill="#0e0e0e" stroke="none">
 <path d="M2330 2281 c0 -567 -4 -919 -10 -935 -6 -17 -17 -26 -30 -26 -27 0 -106 82 -160 165 l-41 64 18 108 c24 144 24 420 0 550 -79 430 -348 788 -675 900 -155 53 -372 41 -510 -28 -57 -28 -132 -93 -172 -149 l-20 -28 86 -78 c96 -86 108 -88 129 -19 40 134 127 211 268 235 302 53 617 -229 723 -647 50 -199 50 -477 0 -678 -142 -565 -683 -786 -1061 -433 -187 175 -274 403 -231 607 28 134 105 243 211 299 44 24 61 27 145 27 84 0 102 -3 151 -28 183 -89 279 -332 192 -484 -58 -102 -206 -103 -228 -1 -5 23 -12 28 -28 26 -19 -3 -22 -10 -25 -65 -3 -74 20 -128 70 -166 42 -31 68 -39 128 -39 57 1 93 17 137 64 56 58 77 119 81 241 4 94 1 117 -21 190 -71 225 -260 394 -469 416 -86 9 -185 -2 -243 -28 -62 -27 -142 -106 -175 -171 -69 -138 -74 -342 -13 -534 94 -300 348 -556 643 -647 63 -20 97 -24 215 -24 120 0 149 3 206 23 86 30 172 81 232 140 55 53 150 191 186 268 l23 51 82 -100 c101 -125 159 -169 230 -175 45 -4 56 -1 83 22 53 44 66 93 72 261 l6 150 119 -155 c66 -85 144 -186 174 -223 l53 -68 47 52 c111 124 278 134 400 24 l49 -44 20 21 21 20 -75 87 c-207 239 -324 483 -388 813 -61 311 -53 535 24 686 68 133 162 197 286 195 115 -1 214 -60 311 -183 l48 -61 25 25 25 25 -38 55 c-56 82 -165 180 -238 214 -128 61 -302 69 -411 19 -168 -77 -268 -275 -267 -532 0 -313 123 -649 384 -1049 42 -65 70 -116 63 -113 -44 17 -145 29 -195 24 -32 -4 -81 -16 -110 -28 -31 -13 -57 -18 -62 -13 -5 5 -67 81 -139 169 l-131 160 0 682 0 683 -100 50 -100 50 0 -909z"/>
 </g>

</svg>