<!DOCTYPE svg PUBLIC "-//W3C//DTD SVG 20010904//EN" "http://www.w3.org/TR/2001/REC-SVG-20010904/DTD/svg10.dtd">
<svg version="1.0" xmlns="http://www.w3.org/2000/svg" width="420px" height="420px" viewBox="0 0 4200 4200" preserveAspectRatio="xMidYMid meet">
<g id="layer101" fill="#000000" stroke="none">
 <path d="M0 2100 l0 -2100 2100 0 2100 0 0 2100 0 2100 -2100 0 -2100 0 0 -2100z"/>
 </g>
<g id="layer102" fill="#ffffff" stroke="none">
 <path d="M0 2100 l0 -2100 2100 0 2100 0 0 2100 0 2100 -2100 0 -2100 0 0 -2100z m2430 1035 l90 -45 0 -679 0 -680 141 -173 c78 -95 143 -174 143 -175 1 -1 30 9 65 23 76 31 198 35 270 10 24 -9 45 -16 47 -16 2 0 -21 39 -53 88 -214 330 -335 594 -390 852 -25 116 -25 349 0 438 25 92 65 169 121 229 107 117 237 154 411 118 137 -29 250 -108 355 -249 l44 -58 -23 -19 c-30 -25 -34 -24 -54 9 -27 47 -150 156 -202 181 -190 89 -386 -25 -460 -269 -65 -216 8 -719 146 -1010 60 -127 174 -298 263 -398 36 -40 66 -77 66 -81 0 -5 -7 -14 -15 -21 -13 -11 -20 -9 -43 12 -50 46 -89 68 -149 83 -107 27 -221 -13 -289 -102 l-32 -42 -174 224 -173 225 -7 -83 c-3 -45 -6 -114 -7 -153 -2 -116 -60 -204 -135 -204 -68 0 -159 72 -263 207 -30 40 -57 73 -58 73 -2 0 -17 -28 -35 -62 -129 -250 -285 -379 -502 -416 -239 -40 -491 46 -691 237 -202 193 -302 401 -314 653 -9 190 25 307 119 401 66 66 139 98 238 104 98 7 184 -9 270 -49 90 -43 213 -167 262 -266 137 -273 52 -591 -159 -592 -53 0 -90 14 -127 48 -57 54 -85 162 -53 207 18 23 33 14 40 -25 4 -19 18 -37 39 -50 67 -41 143 -17 195 61 26 39 28 51 28 134 0 85 -2 96 -38 167 -71 144 -188 220 -340 220 -67 1 -86 -4 -141 -31 -271 -133 -302 -539 -63 -831 144 -176 317 -258 522 -247 155 8 261 54 379 166 138 132 227 308 267 531 21 111 18 402 -5 514 -40 204 -122 376 -240 506 -145 160 -293 229 -464 217 -165 -12 -267 -91 -312 -244 -7 -23 -18 -44 -25 -46 -12 -5 -168 127 -173 146 -4 21 80 109 142 149 149 96 368 113 568 44 313 -109 586 -487 653 -906 20 -122 22 -369 6 -475 -27 -168 -27 -167 14 -230 21 -31 60 -81 88 -111 49 -54 80 -67 105 -42 9 9 12 229 12 930 0 505 2 918 5 918 3 0 46 -20 95 -45z"/>
 </g>

</svg>